<svg width="5810" height="7751" viewBox="0 0 5810 7751" fill="none" xmlns="http://www.w3.org/2000/svg">
<path d="M3766.35 4997.1L5195.29 5441.38L5161.01 4144.49C5160.33 4118.9 5131.83 4103.97 5110.4 4117.98L3766.35 4997.1Z" fill="white"/>
<path d="M1612.61 6524.51L2820.16 6933.15C3104.7 7029.44 3418.94 6968.48 3646.85 6772.78L4238.73 6264.54L5195.44 5440.11L2967.73 4704.3L1061.82 3916.55L1041.97 5704.84C1041.66 5725.02 1036.11 5746.12 1037.2 5766.04C1056.17 6110.73 1281.85 6412.57 1612.61 6524.51Z" fill="#D3D3D3"/>
<path d="M1037.18 5766.43L1050.75 3977.89C1053.06 3671.98 1219.5 3390.88 1486.6 3241.75L3017.17 2387.18L5143.4 1176.87L5126.08 3320.52L1037.18 5766.43Z" fill="white"/>
<path d="M3017.28 2387.19L5143.51 1176.87L3333.24 5.2861C3312.85 -7.91479 3285.68 4.94195 3282.96 29.0855L3017.28 2387.19Z" fill="#D3D3D3"/>
</svg>
